<svg width="186" height="24" viewBox="0 0 186 24" fill="none" xmlns="http://www.w3.org/2000/svg">
<g clip-path="url(#clip0_1_146)">
<path d="M123.402 21V14.034H125.735L126.084 11.326H123.402V9.598C123.402 8.814 123.62 8.279 124.744 8.279H126.178V5.857C125.484 5.78334 124.786 5.74762 124.088 5.75C122.021 5.75 120.606 7.012 120.606 9.33V11.326H118.268V14.034H120.606V21H112C111.735 21 111.48 20.8946 111.293 20.7071C111.105 20.5196 111 20.2652 111 20V4C111 3.73478 111.105 3.48043 111.293 3.29289C111.48 3.10536 111.735 3 112 3H128C128.265 3 128.52 3.10536 128.707 3.29289C128.895 3.48043 129 3.73478 129 4V20C129 20.2652 128.895 20.5196 128.707 20.7071C128.52 20.8946 128.265 21 128 21H123.402V21Z" fill="#899D9D"/>
</g>
<g clip-path="url(#clip1_1_146)">
<path d="M184.162 5.65599C183.399 5.99368 182.589 6.21546 181.76 6.31399C182.634 5.79142 183.288 4.969 183.6 3.99999C182.78 4.48799 181.881 4.82999 180.944 5.01499C180.315 4.34157 179.48 3.89495 178.571 3.74457C177.662 3.59419 176.728 3.74848 175.915 4.18344C175.103 4.6184 174.456 5.30967 174.077 6.14978C173.698 6.98989 173.607 7.93177 173.818 8.82899C172.155 8.74564 170.528 8.31351 169.043 7.56065C167.558 6.80779 166.248 5.75104 165.198 4.45899C164.826 5.09744 164.631 5.82321 164.632 6.56199C164.632 8.01199 165.37 9.29299 166.492 10.043C165.828 10.0221 165.179 9.84277 164.598 9.51999V9.57199C164.598 10.5377 164.932 11.4736 165.544 12.221C166.155 12.9685 167.006 13.4815 167.953 13.673C167.337 13.84 166.69 13.8646 166.063 13.745C166.33 14.5762 166.85 15.3032 167.551 15.8241C168.251 16.345 169.097 16.6338 169.97 16.65C169.102 17.3313 168.109 17.835 167.047 18.1322C165.985 18.4293 164.874 18.5142 163.779 18.382C165.691 19.6114 167.916 20.2641 170.189 20.262C177.882 20.262 182.089 13.889 182.089 8.36199C182.089 8.18199 182.084 7.99999 182.076 7.82199C182.895 7.23016 183.602 6.49701 184.163 5.65699L184.162 5.65599Z" fill="#899D9D"/>
</g>
<g clip-path="url(#clip2_1_146)">
<path d="M66 2C68.717 2 69.056 2.01 70.122 2.06C71.187 2.11 71.912 2.277 72.55 2.525C73.21 2.779 73.766 3.123 74.322 3.678C74.8305 4.1779 75.224 4.78259 75.475 5.45C75.722 6.087 75.89 6.813 75.94 7.878C75.987 8.944 76 9.283 76 12C76 14.717 75.99 15.056 75.94 16.122C75.89 17.187 75.722 17.912 75.475 18.55C75.2247 19.2178 74.8311 19.8226 74.322 20.322C73.822 20.8303 73.2173 21.2238 72.55 21.475C71.913 21.722 71.187 21.89 70.122 21.94C69.056 21.987 68.717 22 66 22C63.283 22 62.944 21.99 61.878 21.94C60.813 21.89 60.088 21.722 59.45 21.475C58.7823 21.2245 58.1775 20.8309 57.678 20.322C57.1694 19.8222 56.7759 19.2175 56.525 18.55C56.277 17.913 56.11 17.187 56.06 16.122C56.013 15.056 56 14.717 56 12C56 9.283 56.01 8.944 56.06 7.878C56.11 6.812 56.277 6.088 56.525 5.45C56.7752 4.78218 57.1688 4.17732 57.678 3.678C58.1777 3.16923 58.7824 2.77573 59.45 2.525C60.088 2.277 60.812 2.11 61.878 2.06C62.944 2.013 63.283 2 66 2ZM66 7C64.6739 7 63.4021 7.52678 62.4645 8.46447C61.5268 9.40215 61 10.6739 61 12C61 13.3261 61.5268 14.5979 62.4645 15.5355C63.4021 16.4732 64.6739 17 66 17C67.3261 17 68.5979 16.4732 69.5355 15.5355C70.4732 14.5979 71 13.3261 71 12C71 10.6739 70.4732 9.40215 69.5355 8.46447C68.5979 7.52678 67.3261 7 66 7V7ZM72.5 6.75C72.5 6.41848 72.3683 6.10054 72.1339 5.86612C71.8995 5.6317 71.5815 5.5 71.25 5.5C70.9185 5.5 70.6005 5.6317 70.3661 5.86612C70.1317 6.10054 70 6.41848 70 6.75C70 7.08152 70.1317 7.39946 70.3661 7.63388C70.6005 7.8683 70.9185 8 71.25 8C71.5815 8 71.8995 7.8683 72.1339 7.63388C72.3683 7.39946 72.5 7.08152 72.5 6.75ZM66 9C66.7956 9 67.5587 9.31607 68.1213 9.87868C68.6839 10.4413 69 11.2044 69 12C69 12.7956 68.6839 13.5587 68.1213 14.1213C67.5587 14.6839 66.7956 15 66 15C65.2044 15 64.4413 14.6839 63.8787 14.1213C63.3161 13.5587 63 12.7956 63 12C63 11.2044 63.3161 10.4413 63.8787 9.87868C64.4413 9.31607 65.2044 9 66 9V9Z" fill="#899D9D"/>
</g>
<g clip-path="url(#clip3_1_146)">
<path d="M21.543 6.498C22 8.28 22 12 22 12C22 12 22 15.72 21.543 17.502C21.289 18.487 20.546 19.262 19.605 19.524C17.896 20 12 20 12 20C12 20 6.107 20 4.395 19.524C3.45 19.258 2.708 18.484 2.457 17.502C2 15.72 2 12 2 12C2 12 2 8.28 2.457 6.498C2.711 5.513 3.454 4.738 4.395 4.476C6.107 4 12 4 12 4C12 4 17.896 4 19.605 4.476C20.55 4.742 21.292 5.516 21.543 6.498V6.498ZM10 15.5L16 12L10 8.5V15.5Z" fill="#899D9D"/>
</g>
<defs>
<clipPath id="clip0_1_146">
<rect width="24" height="24" fill="white" transform="translate(108)"/>
</clipPath>
<clipPath id="clip1_1_146">
<rect width="24" height="24" fill="white" transform="translate(162)"/>
</clipPath>
<clipPath id="clip2_1_146">
<rect width="24" height="24" fill="white" transform="translate(54)"/>
</clipPath>
<clipPath id="clip3_1_146">
<rect width="24" height="24" fill="white"/>
</clipPath>
</defs>
</svg>
